<svg width="100%" height="100%" viewBox="0 0 197 44" fill="none" xmlns="http://www.w3.org/2000/svg">
<g clip-path="url(#clip0_172_1599)">
<path d="M11.3451 16.0065C10.0922 15.9807 8.84915 16.2331 7.7058 16.7457C6.56245 17.2582 5.54731 18.0181 4.73368 18.9704C5.33854 14.4616 9.28327 13.1478 13.4594 11.729C15.3029 11.1813 17.0877 10.4525 18.7875 9.55342C19.2012 9.31294 19.5622 8.99171 19.8491 8.60885C20.1359 8.226 20.3427 7.78937 20.457 7.32498C20.5714 6.8606 20.591 6.37796 20.5147 5.90584C20.4384 5.43372 20.2678 4.98178 20.0129 4.57695L19.6395 3.9884C19.5775 3.88817 19.4939 3.80311 19.3947 3.73945C19.2954 3.67579 19.1832 3.63516 19.0662 3.62055C18.9483 3.60471 18.8283 3.61484 18.7148 3.65025C18.6012 3.68565 18.4967 3.74547 18.4088 3.82549C16.4048 5.66999 13.8749 6.45298 11.4292 7.23072C9.4095 7.86132 7.32669 8.51294 5.51211 9.74786C0.957255 12.8168 0 17.6776 0 21.2142V23.3688C0 30.8782 3.7922 35.3659 10.1406 35.3659C16.2313 35.3659 20.1339 31.4825 20.1339 25.4813C20.1602 19.9005 16.5363 16.0065 11.3451 16.0065ZM10.1406 31.0148C7.21623 31.0148 5.25964 28.9128 5.25964 25.7283C5.25964 22.5437 7.3635 20.3367 10.1985 20.3367C13.1807 20.3367 15.1793 22.4386 15.1793 25.5916C15.1636 28.9128 13.1912 31.0148 10.1406 31.0148Z" fill="white"/>
<path d="M36.3862 16.0488H27.9077C27.0419 16.0522 26.2096 16.3831 25.5782 16.9749C24.9468 17.5667 24.5632 18.3756 24.5047 19.2386L23.9787 25.3396C23.6632 28.85 22.9268 30.5158 20.6389 31.0361C20.3703 31.0966 20.1341 31.2552 19.9765 31.4807C19.8188 31.7062 19.7512 31.9825 19.7868 32.2552C19.8843 33.063 20.2983 33.7993 20.9381 34.3026C21.578 34.806 22.3915 35.0354 23.2003 34.9405C23.5073 34.9028 23.8068 34.8196 24.0892 34.6935C26.8768 33.4691 28.2338 30.5684 28.6388 25.676L29.0333 20.3527H33.0569V32.5022C33.0569 33.1405 33.3107 33.7527 33.7624 34.204C34.2142 34.6554 34.8269 34.909 35.4658 34.909C36.1047 34.909 36.7174 34.6554 37.1692 34.204C37.6209 33.7527 37.8747 33.1405 37.8747 32.5022V17.536C37.8747 17.1416 37.7179 16.7633 37.4388 16.4844C37.1596 16.2055 36.781 16.0488 36.3862 16.0488Z" fill="white"/>
<path d="M55.6734 16.0488C55.4866 16.0484 55.3017 16.0859 55.1299 16.1591C54.9582 16.2323 54.803 16.3396 54.674 16.4745L46.8109 24.5987C46.3428 25.1242 45.8641 25.6497 45.3855 26.1752C45.4171 25.6497 45.4171 25.0769 45.4171 24.5041V18.4346C45.4171 17.8019 45.1655 17.195 44.7177 16.7476C44.2698 16.3002 43.6625 16.0488 43.0292 16.0488C42.3959 16.0488 41.7885 16.3002 41.3407 16.7476C40.8929 17.195 40.6413 17.8019 40.6413 18.4346V33.5585C40.6291 33.7293 40.6508 33.9008 40.705 34.0633C40.7592 34.2257 40.8449 34.3759 40.9573 34.5052C41.0696 34.6346 41.2064 34.7405 41.3597 34.817C41.5131 34.8935 41.68 34.939 41.851 34.951C41.9105 34.9563 41.9703 34.9563 42.0298 34.951C42.2185 34.9504 42.405 34.9119 42.5785 34.8379C42.752 34.7638 42.9088 34.6558 43.0397 34.5201L51.0922 26.0753C51.5498 25.6077 51.9495 25.1662 52.323 24.7301C52.2914 25.2556 52.2914 25.7811 52.2914 26.2645V32.5232C52.2914 33.156 52.543 33.7628 52.9908 34.2102C53.4386 34.6576 54.046 34.909 54.6793 34.909C55.3126 34.909 55.92 34.6576 56.3678 34.2102C56.8156 33.7628 57.0672 33.156 57.0672 32.5232V17.4414C57.0801 17.2713 57.0593 17.1003 57.006 16.9382C56.9527 16.7761 56.8679 16.626 56.7566 16.4967C56.6452 16.3674 56.5094 16.2612 56.3569 16.1844C56.2044 16.1075 56.0383 16.0615 55.868 16.0488H55.6734Z" fill="white"/>
<path d="M73.9769 16.0488H73.9348C73.2977 16.053 72.6879 16.308 72.2379 16.7587C71.7879 17.2093 71.5339 17.819 71.5312 18.4556V23.2534H64.6305V18.4556C64.6305 17.8173 64.3767 17.2051 63.925 16.7538C63.4732 16.3024 62.8605 16.0488 62.2216 16.0488C61.5827 16.0488 60.97 16.3024 60.5182 16.7538C60.0665 17.2051 59.8127 17.8173 59.8127 18.4556V32.5022C59.8127 33.1405 60.0665 33.7527 60.5182 34.204C60.97 34.6554 61.5827 34.909 62.2216 34.909C62.8605 34.909 63.4732 34.6554 63.925 34.204C64.3767 33.7527 64.6305 33.1405 64.6305 32.5022V27.5415H71.5312V32.5022C71.5326 33.1401 71.7868 33.7515 72.2383 34.2025C72.6897 34.6536 73.3016 34.9076 73.9401 34.909H73.9822C74.6206 34.9076 75.2325 34.6536 75.684 34.2025C76.1355 33.7515 76.3897 33.1401 76.3911 32.5022V18.4556C76.3897 17.8168 76.1347 17.2046 75.6821 16.7534C75.2295 16.3022 74.6163 16.0488 73.9769 16.0488Z" fill="white"/>
<path d="M96.93 11.624C96.9878 11.6721 97.0546 11.7083 97.1265 11.7303C97.1984 11.7524 97.274 11.76 97.3488 11.7527C97.4237 11.7453 97.4964 11.7232 97.5626 11.6876C97.6289 11.652 97.6874 11.6036 97.7347 11.5452C97.7605 11.5141 97.7834 11.4806 97.8031 11.4454C99.1233 9.10164 101.895 8.05064 104.867 7.18357C112.099 5.08157 111.452 2.03368 110.584 0.525501C110.515 0.368827 110.401 0.235719 110.257 0.142408C110.113 0.049098 109.946 -0.000382159 109.774 2.22261e-06C109.524 0.03644 109.296 0.159169 109.127 0.346831C108.99 0.457186 108.859 0.572796 108.717 0.68315C107.034 1.98639 105.035 2.63801 103.089 3.22656C101.285 3.7941 99.3179 4.2145 97.8294 5.4757C94.6157 8.15049 95.8412 10.7622 96.93 11.624Z" fill="#FFCC00"/>
<path d="M110.631 13.8939C105.582 9.87379 101.459 12.8429 97.1456 12.8429C92.8327 12.8429 88.7302 9.8843 83.6652 13.8939C80.683 16.2744 80.1149 21.0144 80.3621 24.4038C81.1353 34.9138 90.408 39.8745 97.1456 39.885C103.883 39.8955 113.156 34.9348 113.929 24.4038C114.182 21.0301 113.608 16.3006 110.631 13.8939ZM103.526 34.6037C100.37 36.3169 97.498 34.6353 97.7137 34.2412C97.9293 33.847 99.1127 34.32 102.395 32.528C105.677 30.7361 105.871 29.3488 106.376 29.5222C106.881 29.6956 106.676 32.8854 103.526 34.6037Z" fill="#FFCC00"/>
<path d="M148.648 15.5547C143.215 15.5547 139.123 19.8007 139.123 25.4393C139.123 31.4247 143.062 35.4238 148.927 35.4238C153.377 35.4238 155.764 33.0328 155.859 31.698C155.927 30.7363 155.47 29.6906 154.87 29.4068C154.744 29.3453 154.601 29.3249 154.463 29.3484C154.324 29.372 154.196 29.4384 154.097 29.5382C152.712 30.7115 150.942 31.3344 149.127 31.2881C146.355 31.2881 144.582 29.8588 143.983 27.1419H154.691C155.316 27.1462 155.918 26.9032 156.364 26.4661C156.811 26.0289 157.066 25.4331 157.074 24.8087C157.074 19.1018 153.845 15.5547 148.648 15.5547ZM144.02 23.7052C144.546 21.188 146.26 19.6326 148.564 19.6326C150.868 19.6326 152.314 21.1512 152.488 23.7052H144.02Z" fill="white"/>
<path d="M169.603 15.5911C166.82 15.5911 164.653 16.5055 163.154 18.3079C163.102 18.0452 163.017 17.6931 162.902 17.299C162.699 16.6225 162.235 16.0542 161.613 15.7192C160.99 15.3842 160.26 15.3097 159.583 15.5123C159.373 15.5759 159.172 15.6641 158.983 15.775L158.878 15.8381C158.607 15.9993 158.41 16.2594 158.327 16.5634C158.245 16.8673 158.284 17.1914 158.436 17.4671C158.798 18.0521 158.98 18.7296 158.962 19.4167V41.5928C158.962 42.2311 159.216 42.8433 159.668 43.2946C160.12 43.746 160.732 43.9996 161.371 43.9996C162.01 43.9996 162.623 43.746 163.075 43.2946C163.526 42.8433 163.78 42.2311 163.78 41.5928V36.9894C163.78 35.5968 163.78 34.2778 163.728 33.1112C165.315 34.5885 167.412 35.3961 169.582 35.3656C174.778 35.3656 178.412 31.2667 178.412 25.3812C178.433 19.7163 174.72 15.5911 169.603 15.5911ZM168.666 31.0145C165.658 31.0145 163.638 28.7654 163.638 25.4179C163.638 22.0705 165.679 19.979 168.666 19.979C171.654 19.979 173.537 22.2124 173.537 25.5335C173.537 28.8547 171.58 31.0145 168.666 31.0145Z" fill="white"/>
<path d="M137.34 3.98863C137.276 3.88901 137.191 3.80449 137.091 3.74097C136.991 3.67744 136.879 3.63642 136.761 3.62078C136.644 3.60463 136.525 3.61464 136.412 3.65008C136.299 3.68552 136.196 3.74551 136.109 3.82572C134.105 5.67022 131.575 6.45322 129.124 7.23095C127.11 7.86155 125.022 8.51317 123.212 9.74809C118.652 12.817 117.695 17.6779 117.695 21.2145V23.369C117.695 30.8784 121.487 35.3661 127.841 35.3661C133.926 35.3661 137.861 31.4827 137.861 25.4815C137.861 19.9007 134.231 16.0225 129.04 16.0225C127.786 15.9963 126.542 16.2485 125.398 16.7611C124.254 17.2736 123.238 18.0337 122.423 18.9864C123.034 14.4776 126.978 13.1481 131.155 11.745C133 11.1973 134.786 10.4686 136.488 9.56942C136.9 9.33407 137.261 9.0176 137.547 8.63916C137.834 8.26071 138.041 7.82814 138.155 7.36758C138.271 6.90136 138.29 6.41663 138.214 5.94252C138.137 5.46842 137.965 5.01473 137.708 4.60871L137.34 3.98863ZM127.872 20.3369C130.849 20.3369 132.853 22.4389 132.853 25.5919C132.853 28.913 130.881 31.015 127.809 31.015C124.88 31.015 122.913 28.8815 122.913 25.7075C122.913 22.5335 125.016 20.3264 127.862 20.3264L127.872 20.3369Z" fill="white"/>
<path d="M195.601 16.0488C195.414 16.0484 195.229 16.0859 195.058 16.1591C194.886 16.2323 194.731 16.3396 194.602 16.4745L186.717 24.5987C186.249 25.1242 185.771 25.6497 185.292 26.1752C185.324 25.6497 185.324 25.0769 185.324 24.5041V18.4346C185.324 17.8019 185.072 17.195 184.624 16.7476C184.176 16.3002 183.569 16.0488 182.936 16.0488C182.302 16.0488 181.695 16.3002 181.247 16.7476C180.799 17.195 180.548 17.8019 180.548 18.4346V33.5585C180.536 33.7299 180.559 33.902 180.614 34.0648C180.669 34.2276 180.756 34.378 180.869 34.5073C180.983 34.6366 181.12 34.7424 181.274 34.8185C181.429 34.8946 181.596 34.9397 181.768 34.951C181.824 34.9563 181.88 34.9563 181.936 34.951C182.125 34.9504 182.312 34.9119 182.485 34.8379C182.659 34.7638 182.815 34.6558 182.946 34.5201L191.02 26.0753C191.483 25.6077 191.882 25.1662 192.251 24.7301C192.219 25.2556 192.219 25.7811 192.219 26.2645V32.5232C192.219 33.156 192.471 33.7628 192.918 34.2102C193.366 34.6576 193.974 34.909 194.607 34.909C195.24 34.909 195.848 34.6576 196.295 34.2102C196.743 33.7628 196.995 33.156 196.995 32.5232V17.4414C197.022 17.1 196.913 16.7616 196.691 16.5005C196.47 16.2394 196.153 16.077 195.811 16.0488H195.601Z" fill="white"/>
</g>
<defs>
<clipPath id="clip0_172_1599">
<rect width="197" height="44" fill="white"/>
</clipPath>
</defs>
</svg>
