<svg width="100%" height="100%" viewBox="0 0 125 28" fill="none" xmlns="http://www.w3.org/2000/svg">
<g clip-path="url(#clip0_5_934)">
<path d="M7.19864 10.1861C6.40365 10.1696 5.61494 10.3303 4.88947 10.6564C4.16399 10.9826 3.51987 11.4661 3.0036 12.0721C3.3874 9.2029 5.8904 8.36688 8.54025 7.46398C9.70999 7.11543 10.8424 6.65168 11.921 6.07953C12.1835 5.9265 12.4126 5.72207 12.5946 5.47844C12.7766 5.23481 12.9078 4.95695 12.9804 4.66143C13.0529 4.36591 13.0654 4.05878 13.017 3.75834C12.9685 3.4579 12.8603 3.1703 12.6986 2.91268L12.4616 2.53815C12.4223 2.47437 12.3692 2.42024 12.3063 2.37973C12.2433 2.33922 12.1721 2.31336 12.0979 2.30406C12.023 2.29398 11.9469 2.30043 11.8748 2.32296C11.8028 2.34549 11.7365 2.38356 11.6807 2.43448C10.4092 3.60825 8.8039 4.10652 7.25204 4.60145C5.9705 5.00274 4.64891 5.4174 3.49753 6.20326C0.607395 8.1562 0 11.2495 0 13.5V14.8711C0 19.6498 2.40622 22.5057 6.43439 22.5057C10.299 22.5057 12.7753 20.0344 12.7753 16.2154C12.792 12.664 10.4926 10.1861 7.19864 10.1861ZM6.43439 19.7368C4.57883 19.7368 3.33734 18.3991 3.33734 16.3726C3.33734 14.3461 4.67227 12.9416 6.4711 12.9416C8.36337 12.9416 9.63156 14.2792 9.63156 16.2857C9.62155 18.3991 8.37004 19.7368 6.43439 19.7368Z" fill="#FF0056"/>
<path d="M23.0877 10.2128H17.7079C17.1586 10.2149 16.6304 10.4255 16.2298 10.8021C15.8292 11.1787 15.5858 11.6934 15.5487 12.2426L15.2149 16.1251C15.0147 18.359 14.5475 19.419 13.0957 19.7501C12.9253 19.7886 12.7754 19.8895 12.6754 20.0331C12.5754 20.1766 12.5325 20.3523 12.5551 20.5259C12.6169 21.04 12.8796 21.5085 13.2856 21.8288C13.6916 22.1491 14.2078 22.2951 14.721 22.2347C14.9158 22.2108 15.1059 22.1578 15.285 22.0776C17.0538 21.2984 17.9148 19.4525 18.1718 16.3391L18.4221 12.9516H20.9752V20.6831C20.9752 21.0893 21.1362 21.4789 21.4229 21.7661C21.7095 22.0533 22.0983 22.2147 22.5037 22.2147C22.9091 22.2147 23.2978 22.0533 23.5845 21.7661C23.8711 21.4789 24.0322 21.0893 24.0322 20.6831V11.1591C24.0322 10.9081 23.9327 10.6674 23.7556 10.49C23.5784 10.3125 23.3382 10.2128 23.0877 10.2128Z" fill="#FF0056"/>
<path d="M35.3257 10.2128C35.2072 10.2125 35.0899 10.2364 34.9809 10.283C34.8719 10.3295 34.7735 10.3978 34.6916 10.4836L29.7023 15.6536C29.4053 15.988 29.1016 16.3224 28.7979 16.6568C28.8179 16.3224 28.8179 15.9579 28.8179 15.5934V11.731C28.8179 11.3283 28.6583 10.9422 28.3741 10.6574C28.09 10.3727 27.7046 10.2128 27.3028 10.2128C26.9009 10.2128 26.5155 10.3727 26.2314 10.6574C25.9472 10.9422 25.7876 11.3283 25.7876 11.731V21.3553C25.7799 21.464 25.7936 21.5731 25.828 21.6765C25.8624 21.7799 25.9168 21.8754 25.9881 21.9577C26.0594 22.04 26.1462 22.1075 26.2435 22.1561C26.3408 22.2048 26.4467 22.2338 26.5552 22.2414C26.593 22.2448 26.6309 22.2448 26.6687 22.2414C26.7884 22.241 26.9067 22.2165 27.0168 22.1694C27.1269 22.1223 27.2264 22.0536 27.3094 21.9672L32.4189 16.5933C32.7093 16.2957 32.9629 16.0148 33.1998 15.7372C33.1798 16.0716 33.1798 16.406 33.1798 16.7137V20.6965C33.1798 21.0991 33.3394 21.4853 33.6236 21.77C33.9077 22.0547 34.2931 22.2147 34.695 22.2147C35.0968 22.2147 35.4822 22.0547 35.7663 21.77C36.0505 21.4853 36.2101 21.0991 36.2101 20.6965V11.099C36.2183 10.9907 36.2051 10.8819 36.1713 10.7787C36.1375 10.6755 36.0837 10.5801 36.013 10.4978C35.9424 10.4155 35.8562 10.3479 35.7594 10.299C35.6627 10.2501 35.5573 10.2208 35.4492 10.2128H35.3257Z" fill="#FF0056"/>
<path d="M46.9397 10.2128H46.913C46.5087 10.2154 46.1218 10.3777 45.8362 10.6645C45.5507 10.9512 45.3895 11.3393 45.3878 11.7444V14.7975H41.0092V11.7444C41.0092 11.3382 40.8482 10.9486 40.5615 10.6614C40.2749 10.3741 39.8861 10.2128 39.4807 10.2128C39.0753 10.2128 38.6865 10.3741 38.3999 10.6614C38.1132 10.9486 37.9522 11.3382 37.9522 11.7444V20.6831C37.9522 21.0893 38.1132 21.4789 38.3999 21.7661C38.6865 22.0533 39.0753 22.2147 39.4807 22.2147C39.8861 22.2147 40.2749 22.0533 40.5615 21.7661C40.8482 21.4789 41.0092 21.0893 41.0092 20.6831V17.5263H45.3878V20.6831C45.3887 21.089 45.55 21.4781 45.8365 21.7651C46.1229 22.0522 46.5112 22.2138 46.9163 22.2147H46.943C47.3481 22.2138 47.7364 22.0522 48.0228 21.7651C48.3093 21.4781 48.4706 21.089 48.4715 20.6831V11.7444C48.4706 11.3378 48.3088 10.9483 48.0217 10.6612C47.7345 10.374 47.3454 10.2128 46.9397 10.2128Z" fill="#FF0056"/>
<path d="M61.5038 7.39711C61.5405 7.42771 61.5829 7.4507 61.6285 7.46476C61.6741 7.47881 61.7221 7.48365 61.7696 7.47898C61.8171 7.47431 61.8632 7.46024 61.9052 7.43757C61.9473 7.41491 61.9844 7.38411 62.0144 7.34695C62.0308 7.32713 62.0453 7.30586 62.0578 7.28341C62.8955 5.79195 64.6543 5.12313 66.5399 4.57136C71.1287 3.23373 70.7182 1.29416 70.1675 0.33441C70.1235 0.234708 70.0515 0.150003 69.9602 0.0906236C69.8689 0.0312442 69.7624 -0.000243192 69.6536 1.41439e-06C69.4952 0.0231891 69.35 0.101289 69.2431 0.220711C69.1563 0.290937 69.0729 0.364506 68.9828 0.434732C67.9148 1.26406 66.6467 1.67873 65.4118 2.05327C64.2671 2.41443 63.019 2.68196 62.0745 3.48453C60.0354 5.18667 60.813 6.84868 61.5038 7.39711Z" fill="#FF0056"/>
<path d="M70.1976 8.84175C66.9937 6.28353 64.3772 8.17294 61.6406 8.17294C58.904 8.17294 56.3009 6.29022 53.087 8.84175C51.1948 10.3566 50.8343 13.373 50.9912 15.5299C51.4818 22.2181 57.3655 25.3749 61.6406 25.3816C65.9158 25.3883 71.7995 22.2315 72.2901 15.5299C72.4503 13.383 72.0865 10.3733 70.1976 8.84175ZM65.6888 22.0208C63.6864 23.1109 61.8642 22.0408 62.0011 21.79C62.1379 21.5392 62.8888 21.8402 64.9713 20.6999C67.0538 19.5595 67.1773 18.6767 67.4977 18.7871C67.818 18.8974 67.6879 20.9273 65.6888 22.0208Z" fill="#FF0056"/>
<path d="M94.3199 9.89844C90.8724 9.89844 88.2759 12.6005 88.2759 16.1887C88.2759 19.9976 90.7756 22.5424 94.4967 22.5424C97.3201 22.5424 98.8353 21.0209 98.8953 20.1715C98.9387 19.5595 98.6484 18.894 98.2679 18.7134C98.1877 18.6743 98.0972 18.6613 98.0092 18.6763C97.9212 18.6913 97.8401 18.7335 97.7773 18.797C96.8982 19.5437 95.7756 19.9401 94.6236 19.9106C92.8648 19.9106 91.7401 19.001 91.3596 17.2721H98.1545C98.551 17.2748 98.9326 17.1202 99.2158 16.842C99.4991 16.5639 99.661 16.1847 99.6663 15.7874C99.6663 12.1557 97.6171 9.89844 94.3199 9.89844ZM91.383 15.0851C91.7167 13.4833 92.8047 12.4934 94.2665 12.4934C95.7282 12.4934 96.646 13.4599 96.7561 15.0851H91.383Z" fill="#FF0056"/>
<path d="M107.616 9.92191C105.85 9.92191 104.475 10.5038 103.524 11.6508C103.491 11.4836 103.437 11.2595 103.364 11.0087C103.235 10.5782 102.941 10.2166 102.546 10.0034C102.151 9.79022 101.688 9.74286 101.258 9.87175C101.125 9.91219 100.997 9.96832 100.878 10.0389L100.811 10.0791C100.639 10.1817 100.514 10.3472 100.462 10.5406C100.409 10.734 100.434 10.9403 100.531 11.1157C100.76 11.488 100.876 11.9191 100.864 12.3564V26.4684C100.864 26.8746 101.025 27.2642 101.312 27.5514C101.599 27.8387 101.987 28 102.393 28C102.798 28 103.187 27.8387 103.474 27.5514C103.76 27.2642 103.921 26.8746 103.921 26.4684V23.539C103.921 22.6528 103.921 21.8135 103.888 21.0711C104.895 22.0112 106.226 22.5251 107.602 22.5057C110.9 22.5057 113.206 19.8973 113.206 16.1519C113.219 12.547 110.863 9.92191 107.616 9.92191ZM107.022 19.7368C105.113 19.7368 103.831 18.3055 103.831 16.1753C103.831 14.0452 105.126 12.7142 107.022 12.7142C108.917 12.7142 110.112 14.1355 110.112 16.2489C110.112 18.3624 108.871 19.7368 107.022 19.7368Z" fill="#FF0056"/>
<path d="M87.1446 2.53817C87.104 2.47478 87.0502 2.421 86.9868 2.38057C86.9234 2.34014 86.8519 2.31404 86.7775 2.30409C86.7031 2.29381 86.6275 2.30018 86.5559 2.32273C86.4844 2.34529 86.4187 2.38346 86.3636 2.43451C85.0921 3.60828 83.4868 4.10655 81.9316 4.60147C80.6534 5.00276 79.3285 5.41743 78.1805 6.20329C75.287 8.15623 74.6796 11.2495 74.6796 13.5001V14.8711C74.6796 19.6498 77.0858 22.5057 81.1173 22.5057C84.9786 22.5057 87.475 20.0344 87.475 16.2155C87.475 12.6641 85.1722 10.1961 81.8782 10.1961C81.0827 10.1794 80.2934 10.3399 79.5674 10.6661C78.8413 10.9923 78.1966 11.4759 77.6799 12.0822C78.067 9.21296 80.57 8.36691 83.2199 7.47404C84.3907 7.12551 85.5242 6.66176 86.6039 6.08959C86.8656 5.93982 87.0943 5.73843 87.2761 5.4976C87.458 5.25677 87.5892 4.9815 87.6619 4.68842C87.7351 4.39173 87.7477 4.08326 87.699 3.78156C87.6502 3.47986 87.5411 3.19115 87.3782 2.93277L87.1446 2.53817ZM81.1374 12.9416C83.0263 12.9416 84.2978 14.2792 84.2978 16.2857C84.2978 18.3992 83.0463 19.7368 81.0973 19.7368C79.2384 19.7368 77.9902 18.3791 77.9902 16.3593C77.9902 14.3394 79.3252 12.9349 81.1307 12.9349L81.1374 12.9416Z" fill="#FF0056"/>
<path d="M124.112 10.2128C123.994 10.2125 123.876 10.2364 123.767 10.283C123.658 10.3295 123.56 10.3978 123.478 10.4836L118.476 15.6536C118.178 15.988 117.875 16.3224 117.571 16.6568C117.591 16.3224 117.591 15.9579 117.591 15.5934V11.731C117.591 11.3283 117.431 10.9422 117.147 10.6574C116.863 10.3727 116.478 10.2128 116.076 10.2128C115.674 10.2128 115.289 10.3727 115.005 10.6574C114.72 10.9422 114.561 11.3283 114.561 11.731V21.3553C114.554 21.4644 114.568 21.5739 114.603 21.6775C114.638 21.7811 114.693 21.8768 114.765 21.9591C114.837 22.0414 114.924 22.1087 115.022 22.1571C115.12 22.2056 115.226 22.2342 115.335 22.2414C115.371 22.2448 115.406 22.2448 115.442 22.2414C115.562 22.241 115.68 22.2165 115.79 22.1694C115.9 22.1223 116 22.0536 116.083 21.9672L121.205 16.5933C121.499 16.2957 121.753 16.0148 121.986 15.7372C121.966 16.0716 121.966 16.406 121.966 16.7137V20.6965C121.966 21.0991 122.126 21.4853 122.41 21.77C122.694 22.0547 123.08 22.2147 123.482 22.2147C123.883 22.2147 124.269 22.0547 124.553 21.77C124.837 21.4853 124.997 21.0991 124.997 20.6965V11.099C125.014 10.8817 124.945 10.6663 124.804 10.5002C124.663 10.334 124.463 10.2307 124.246 10.2128H124.112Z" fill="#FF0056"/>
</g>
<defs>
<clipPath id="clip0_5_934">
<rect width="125" height="28" fill="white"/>
</clipPath>
</defs>
</svg>
