<svg width="50" height="48" viewBox="0 0 50 48" fill="none" xmlns="http://www.w3.org/2000/svg">
<path d="M46.318 11.3L38.5676 3.72C37.9133 3.08 36.809 3.52 36.809 4.42V8H29.6517C29.0791 8 28.6292 8.44 28.6292 9V15C28.6292 15.56 29.0791 16 29.6517 16H36.809V19.58C36.809 20.48 37.9133 20.92 38.5472 20.28L46.2975 12.7C46.7065 12.32 46.7065 11.68 46.318 11.3ZM39.3243 30.52L34.1301 29.94C32.8827 29.8 31.6557 30.22 30.7764 31.08L27.0137 34.76C21.2265 31.88 16.4822 27.26 13.5375 21.58L17.3207 17.88C18.2 17.02 18.6294 15.82 18.4863 14.6L17.8933 9.56C17.6479 7.54 15.9097 6.02 13.8238 6.02H10.2861C7.97527 6.02 6.05303 7.9 6.19617 10.16C7.27999 27.24 21.247 40.88 38.6903 41.94C41.0011 42.08 42.9234 40.2 42.9234 37.94V34.48C42.9438 32.46 41.3897 30.76 39.3243 30.52Z" fill="#FF0056"/>
</svg>
