<svg width="88" height="88" viewBox="0 0 88 88" fill="none" xmlns="http://www.w3.org/2000/svg">
<circle cx="44" cy="44" r="42" stroke="white" stroke-width="4"/>
<path d="M46.592 48.36L41.152 47.56C37.2907 46.984 34.3467 45.7147 32.32 43.752C30.144 41.64 29.056 38.664 29.056 34.824C29.056 30.7067 30.4853 27.3787 33.344 24.84C36.2027 22.28 40.064 21 44.928 21C48.6187 21 52.0533 21.736 55.232 23.208C57.664 24.3387 58.88 25.8213 58.88 27.656C58.88 28.6373 58.5387 29.5547 57.856 30.408C57.152 31.2187 56.2667 31.624 55.2 31.624C54.304 31.624 53.1947 31.2827 51.872 30.6C49.6107 29.4053 47.2107 28.808 44.672 28.808C42.432 28.808 40.704 29.3413 39.488 30.408C38.272 31.4533 37.664 32.7547 37.664 34.312C37.664 35.8267 38.1013 36.9893 38.976 37.8C39.9787 38.696 41.3867 39.2827 43.2 39.56L48.544 40.328C52.4907 40.904 55.4027 42.088 57.28 43.88C59.6267 46.0773 60.8 49.288 60.8 53.512C60.8 56.3707 60.0427 58.856 58.528 60.968C57.0347 63.08 55.0187 64.6693 52.48 65.736C49.9627 66.8027 47.0933 67.336 43.872 67.336C41.44 67.336 39.392 67.1653 37.728 66.824C36.064 66.4613 34.336 65.8533 32.544 65C30.9653 64.2533 29.8133 63.5067 29.088 62.76C28.3627 61.992 28 61 28 59.784C28 58.6533 28.4053 57.6827 29.216 56.872C29.8773 56.2107 30.7093 55.88 31.712 55.88C32.5867 55.88 33.792 56.2853 35.328 57.096C36.992 57.9707 38.432 58.5893 39.648 58.952C40.8853 59.2933 42.3253 59.464 43.968 59.464C46.5707 59.464 48.5653 58.9627 49.952 57.96C51.36 56.9573 52.064 55.5493 52.064 53.736C52.064 52.0933 51.6053 50.824 50.688 49.928C49.8987 49.1813 48.5333 48.6587 46.592 48.36Z" fill="white"/>
</svg>
