<svg width="88" height="88" viewBox="0 0 88 88" fill="none" xmlns="http://www.w3.org/2000/svg">
<circle cx="44" cy="44" r="42" stroke="#FF0056" stroke-width="4"/>
<path d="M56.464 59.88C57.68 60.52 58.288 61.6187 58.288 63.176C58.288 64.7333 57.68 65.832 56.464 66.472C55.8453 66.792 54.704 66.952 53.04 66.952H35.536C34.8107 66.952 34.2453 66.9413 33.84 66.92C33.4347 66.8773 32.9653 66.76 32.432 66.568C31.92 66.376 31.4933 66.0987 31.152 65.736C30.384 64.968 30 63.976 30 62.76C30 61.9493 30.1813 61.2133 30.544 60.552C30.9067 59.8693 31.4613 59.08 32.208 58.184L46.352 41.032C47.4613 39.6667 48.272 38.4613 48.784 37.416C49.296 36.3493 49.552 35.144 49.552 33.8C49.552 32.2427 49.072 30.984 48.112 30.024C47.152 29.0427 45.808 28.552 44.08 28.552C42.6293 28.552 41.4453 28.8933 40.528 29.576C39.632 30.2373 38.8853 31.336 38.288 32.872C37.8827 33.8747 37.3387 34.664 36.656 35.24C36.08 35.7093 35.2907 35.944 34.288 35.944C32.9867 35.944 31.9947 35.528 31.312 34.696C30.6507 33.8853 30.32 32.8933 30.32 31.72C30.32 30.44 30.6613 29.1173 31.344 27.752C32.048 26.3653 32.9867 25.1813 34.16 24.2C36.7627 22.0667 40.016 21 43.92 21C48.1867 21 51.5787 22.1093 54.096 24.328C56.6347 26.5253 57.904 29.6187 57.904 33.608C57.904 34.888 57.7973 36.0187 57.584 37C57.392 37.9813 57.008 38.984 56.432 40.008C55.8773 41.032 55.2907 41.9493 54.672 42.76C54.0747 43.5707 53.1893 44.68 52.016 46.088L40.944 59.4H53.04C54.704 59.4 55.8453 59.56 56.464 59.88Z" fill="#FF0056"/>
</svg>
