<svg width="100%" height="100%" viewBox="0 0 88 88" fill="none" xmlns="http://www.w3.org/2000/svg">
<circle cx="44" cy="44" r="42" stroke="#FF0056" stroke-width="4"/>
<path d="M30 57.096C30 55.7947 30.3627 54.76 31.088 53.992C31.856 53.16 32.8693 52.744 34.128 52.744C35.216 52.744 36.0693 53.0213 36.688 53.576C37.328 54.152 37.8507 55.0053 38.256 56.136C38.704 57.416 39.344 58.344 40.176 58.92C41.0293 59.496 42.2773 59.784 43.92 59.784C45.648 59.784 47.088 59.2293 48.24 58.12C49.392 57.0107 49.968 55.4747 49.968 53.512C49.968 51.592 49.4347 50.0987 48.368 49.032C47.3227 47.944 45.808 47.3573 43.824 47.272C42.8 47.2293 42.0107 47.0587 41.456 46.76C40.304 46.1413 39.728 45.096 39.728 43.624C39.728 42.1733 40.304 41.1387 41.456 40.52C42.0747 40.2213 42.864 40.0507 43.824 40.008C45.5947 39.944 46.992 39.4213 48.016 38.44C49.0613 37.4373 49.584 36.04 49.584 34.248C49.584 32.456 49.0613 31.0587 48.016 30.056C46.9707 29.0533 45.6267 28.552 43.984 28.552C42.64 28.552 41.5733 28.8187 40.784 29.352C40.016 29.8853 39.3867 30.76 38.896 31.976C38.4267 33.1707 37.904 34.0133 37.328 34.504C36.7307 35.0373 35.888 35.304 34.8 35.304C33.712 35.304 32.7947 34.952 32.048 34.248C31.3013 33.5227 30.928 32.5627 30.928 31.368C30.928 30.3227 31.1307 29.2773 31.536 28.232C32.1547 26.6107 33.0507 25.2773 34.224 24.232C36.6773 22.0773 39.952 21 44.048 21C46.672 21 49.0187 21.4907 51.088 22.472C53.1787 23.4533 54.8427 24.9253 56.08 26.888C57.3387 28.8507 57.968 31.1547 57.968 33.8C57.968 38.2373 56.1227 41.4373 52.432 43.4C56.3787 45.4053 58.352 48.9253 58.352 53.96C58.352 56.7547 57.712 59.176 56.432 61.224C55.152 63.272 53.4347 64.808 51.28 65.832C49.1467 66.8347 46.7147 67.336 43.984 67.336C41.5733 67.336 39.5467 67.0907 37.904 66.6C36.2613 66.088 34.7573 65.2453 33.392 64.072C31.1307 62.1093 30 59.784 30 57.096Z" fill="#FF0056"/>
</svg>
