<svg width="48" height="48" viewBox="0 0 48 48" fill="none" xmlns="http://www.w3.org/2000/svg">
<path d="M32.3123 29.7785L26.8271 24.7444V24.5615V24.3788L32.3123 19.3447L32.4319 19.4058L38.9264 22.7942C40.7858 23.7571 40.7858 25.3417 38.9264 26.3168L32.4319 29.7053L32.3123 29.7785Z" fill="white"/>
<path d="M8.94493 9.37536C8.55977 9.75321 8.33398 10.3383 8.33398 11.0818V38.0435C8.33398 38.7992 8.55977 39.3843 8.94493 39.75L9.0379 39.8353L25.4935 24.7455V24.5627V24.3798L9.0379 9.29004L8.94493 9.37536Z" fill="white"/>
<path d="M31.7646 30.3707L26.1599 25.2148L9.61133 40.4021C10.2223 40.9994 11.2317 41.0726 12.3738 40.4753L31.7646 30.3707Z" fill="white"/>
<path d="M31.7652 18.7652L12.3612 8.6484C11.219 8.05114 10.2096 8.12428 9.59863 8.72154L26.1605 23.9088L31.7652 18.7652Z" fill="white"/>
</svg>
