<svg width="48" height="48" viewBox="0 0 48 48" fill="none" xmlns="http://www.w3.org/2000/svg">
<path d="M21.586 26.3087H22.8958L22.2376 24.8096L21.586 26.3087Z" fill="white"/>
<path fill-rule="evenodd" clip-rule="evenodd" d="M30.8085 7.62891H16.5252C9.79514 7.62891 7.3335 10.0557 7.3335 16.6936V30.7823C7.3335 37.4191 9.79514 39.8481 16.5252 39.8481H30.805C37.534 39.8481 40.0002 37.4191 40.0002 30.7823V16.6936C40.0002 10.0557 37.5373 7.62891 30.8085 7.62891ZM13.8035 23.7391H14.6696V27.9513H13.8035V26.2417H11.8466V27.9513H10.9794V23.7391H11.8466V25.4387H13.8035V23.7391ZM18.6851 26.1459C18.6851 26.832 18.3395 27.1973 17.714 27.1973C17.0883 27.1973 16.7371 26.8209 16.7371 26.117V23.7425H15.8711V26.1459C15.8711 27.3309 16.5385 28.0103 17.7026 28.0103C18.8668 28.0103 19.5512 27.3187 19.5512 26.117V23.7391H18.6851V26.1459ZM28.6988 26.6316L27.7288 23.7358H27.0219L26.0531 26.6316L25.1091 23.7358H24.1865L25.6759 27.9458H26.393L27.3629 25.1804L28.3352 27.9458H29.0579L30.5439 23.7358H29.6406L28.6988 26.6316ZM32.0966 26.1348H33.6775V25.3685H32.0966V24.5054H34.3844V23.7381H31.2384V27.9446H34.4634V27.1817H32.0921L32.0966 26.1348ZM35.4999 27.9413H36.3559V23.7391H35.4999V27.9413ZM21.2641 27.067L20.8757 27.9446H19.9904L21.8728 23.7347H22.6362L24.5106 27.9446H23.6073L23.2234 27.067H21.2641ZM19.8303 16.8046C20.8495 17.8099 22.2314 18.3755 23.6729 18.3773C25.1145 18.3758 26.4967 17.8104 27.5163 16.805C28.5358 15.7996 29.1093 14.4365 29.1111 13.0146H28.3422C28.3517 13.6253 28.2381 14.2318 28.0078 14.7989C27.7775 15.3658 27.4352 15.882 27.0006 16.3172C26.5662 16.7525 26.0483 17.0982 25.4771 17.3341C24.9058 17.57 24.2927 17.6915 23.6734 17.6915C23.0542 17.6915 22.441 17.57 21.8699 17.3341C21.2987 17.0982 20.7807 16.7525 20.3462 16.3172C19.9117 15.882 19.5694 15.3658 19.339 14.7989C19.1088 14.2318 18.9951 13.6253 19.0048 13.0146H18.2357C18.2376 14.4364 18.8109 15.7994 19.8303 16.8046Z" fill="white"/>
</svg>
