<svg width="30" height="30" viewBox="0 0 30 18" fill="none" xmlns="http://www.w3.org/2000/svg">
<path d="M26.1192 2.26577C25.7245 4.85492 25.2717 7.87099 24.8045 10.8836C24.3626 13.7286 23.9112 16.5721 23.4501 19.414C23.3851 19.8133 23.3057 20.2195 23.1515 20.5929C22.7355 21.5883 21.7925 21.9163 20.8172 21.4462C17.7413 19.971 15.0377 17.9215 12.3214 15.8985C11.2788 15.1218 11.2989 14.4716 12.25 13.5608C14.4554 11.4475 16.6803 9.35199 18.8736 7.23176C19.3161 6.80369 20.1032 6.23292 19.6717 5.68402C19.296 5.20704 18.5612 5.87562 18.0871 6.18804C15.002 8.22312 11.9198 10.2651 8.8916 12.3836C7.66204 13.2438 6.4273 13.4141 5.04815 12.9785C3.78809 12.5775 2.52919 12.1845 1.27201 11.7766C0.823227 11.6299 0.308849 11.4889 0.265697 10.9095C0.223695 10.3416 0.679961 10.0551 1.10573 9.86867C2.77948 9.13507 4.47105 8.44118 6.15918 7.73981C11.9152 5.35472 17.6719 2.97212 23.4294 0.592022C23.6803 0.488456 23.9259 0.365903 24.186 0.295132C25.5795 -0.0840344 26.1802 0.395823 26.1192 2.26577Z" fill="black"/>
</svg>
