<svg width="30" height="30" viewBox="0 -9 30 30" fill="none" xmlns="http://www.w3.org/2000/svg">
<path d="M0.299683 1.75696V1.35421C0.548817 0.935914 0.964231 0.911748 1.38022 0.90772C2.61496 0.896788 3.8497 0.894487 5.08386 0.888158C5.95669 0.883555 6.27314 1.10047 6.62066 1.89563C7.3882 3.65567 8.23457 5.37027 9.25815 6.9928C9.5815 7.50488 9.96815 7.9738 10.5136 8.27127C10.9302 8.49854 11.2725 8.38634 11.4773 7.9669C11.5655 7.79705 11.629 7.61553 11.6661 7.42778C11.7478 6.93699 11.8277 6.44333 11.8634 5.94794C11.9451 4.82597 11.9209 3.70746 11.6672 2.60275C11.5349 2.02739 11.2017 1.64994 10.6425 1.47158C10.5164 1.42716 10.3869 1.39329 10.2553 1.37032C10.0073 1.33522 10.0251 1.21439 10.1442 1.06019C10.2954 0.861491 10.4844 0.694569 10.7002 0.568984C10.916 0.4434 11.1545 0.36162 11.402 0.328327C12.9457 0.0996337 14.5131 0.0787337 16.0624 0.266186C17.0066 0.376081 17.3047 0.62464 17.4911 1.41174C17.5201 1.53289 17.5344 1.65712 17.5337 1.7817C17.5273 2.50091 17.5135 3.22012 17.5049 3.93876C17.4928 4.94507 17.4554 5.95254 17.4882 6.95771C17.5109 7.33667 17.6179 7.70581 17.8012 8.03825C17.9951 8.40188 18.3622 8.42834 18.6792 8.16368C18.9418 7.95633 19.1846 7.7252 19.4047 7.47323C20.2805 6.41283 20.991 5.24081 21.609 4.01643C22.0048 3.23163 22.3449 2.41806 22.6987 1.61197C22.8742 1.21324 23.1159 0.939366 23.5934 0.937064C25.239 0.929585 26.8851 0.908871 28.5306 0.90024C28.7314 0.897945 28.9316 0.921931 29.1261 0.971587C29.5997 1.09644 29.789 1.37434 29.6618 1.85075C29.5488 2.2846 29.3882 2.70466 29.1831 3.10332C28.4432 4.51988 27.4351 5.75461 26.4846 7.02905C25.999 7.68037 25.5244 8.34319 25.0813 9.02442C24.8069 9.44674 24.8425 9.90991 25.1458 10.3179C25.3449 10.5749 25.5618 10.8177 25.7948 11.0445C26.6003 11.8621 27.4432 12.6481 28.2188 13.495C28.6882 14.0001 29.0976 14.5579 29.4386 15.1573C29.9063 15.9973 29.7694 16.7723 28.5715 16.8442C28.2378 16.8638 27.9029 16.8788 27.5686 16.8851C26.5445 16.9041 25.5197 16.8977 24.4967 16.9426C23.9611 16.9656 23.4772 16.8419 23.0008 16.6227C22.2868 16.2925 21.7689 15.7257 21.2448 15.1659C20.6959 14.5796 20.1723 13.9651 19.5854 13.4191C18.8547 12.7396 18.3507 12.9168 17.8507 13.7683C17.8287 13.811 17.8095 13.855 17.7931 13.9001C17.5469 14.4755 17.5089 15.0859 17.4842 15.701C17.4508 16.545 17.1159 16.8621 16.2661 16.869C15.6246 16.8742 14.9831 16.8914 14.3427 16.869C13.8934 16.8626 13.4456 16.817 13.0044 16.7326C10.5619 16.2148 8.57404 14.8914 6.96819 13.0353C5.06372 10.8334 3.52174 8.36966 2.2099 5.76957C1.54535 4.4468 0.935463 3.09642 0.299683 1.75696Z" fill="black"/>
</svg>
