<svg width="32" height="22" viewBox="0 0 32 22" fill="none" xmlns="http://www.w3.org/2000/svg">
<path d="M30.3943 3.77823C30.2224 3.14449 29.8876 2.56677 29.4233 2.10246C28.959 1.63815 28.3813 1.30343 27.7476 1.13154C25.3983 0.488282 16.0003 0.488281 16.0003 0.488281C16.0003 0.488281 6.60225 0.488281 4.25245 1.1068C3.61923 1.28756 3.04317 1.62819 2.57965 2.09594C2.11614 2.56369 1.78076 3.14282 1.60576 3.77766C0.987244 6.12746 0.987244 10.9997 0.987244 10.9997C0.987244 10.9997 0.987244 15.8966 1.60576 18.2211C1.77738 18.855 2.11202 19.4328 2.57637 19.8972C3.04072 20.3615 3.61859 20.6962 4.25245 20.8678C6.62699 21.511 16.0003 21.511 16.0003 21.511C16.0003 21.511 25.3983 21.511 27.7476 20.8925C28.3814 20.7207 28.9591 20.3861 29.4235 19.9217C29.8878 19.4574 30.2225 18.8796 30.3943 18.2458C31.0099 15.8972 31.0099 11.025 31.0099 11.025C31.0099 11.025 31.0369 6.12803 30.3943 3.77823Z" fill="black"/>
</svg>
